<mxfile host="app.diagrams.net" agent="Mozilla/5.0 (Windows NT 10.0; Win64; x64) AppleWebKit/537.36 (KHTML, like Gecko) Chrome/141.0.0.0 Safari/537.36 Edg/141.0.0.0" version="28.2.7">
  <diagram name="Page-1" id="-FD-WwoNRSB1jqXmBbmY">
    <mxGraphModel dx="778" dy="476" grid="1" gridSize="10" guides="1" tooltips="1" connect="1" arrows="1" fold="1" page="1" pageScale="1" pageWidth="850" pageHeight="1100" math="0" shadow="0">
      <root>
        <mxCell id="0" />
        <mxCell id="1" parent="0" />
        <mxCell id="3gHYaD6FzkBsOfii6fHW-1" value="Room" style="swimlane;fontStyle=1;align=center;verticalAlign=top;childLayout=stackLayout;horizontal=1;startSize=26;horizontalStack=0;resizeParent=1;resizeParentMax=0;resizeLast=0;collapsible=1;marginBottom=0;whiteSpace=wrap;html=1;" parent="1" vertex="1">
          <mxGeometry x="160" y="240" width="160" height="210" as="geometry">
            <mxRectangle x="141" y="200" width="70" height="30" as="alternateBounds" />
          </mxGeometry>
        </mxCell>
        <mxCell id="3gHYaD6FzkBsOfii6fHW-2" value="- id: int&lt;div&gt;- roomName: String&lt;/div&gt;&lt;div&gt;- roomType: String&lt;/div&gt;&lt;div&gt;- price: double&lt;/div&gt;&lt;div&gt;- imageName: String&lt;/div&gt;" style="text;strokeColor=none;fillColor=none;align=left;verticalAlign=top;spacingLeft=4;spacingRight=4;overflow=hidden;rotatable=0;points=[[0,0.5],[1,0.5]];portConstraint=eastwest;whiteSpace=wrap;html=1;" parent="3gHYaD6FzkBsOfii6fHW-1" vertex="1">
          <mxGeometry y="26" width="160" height="84" as="geometry" />
        </mxCell>
        <mxCell id="3gHYaD6FzkBsOfii6fHW-3" value="" style="line;strokeWidth=1;fillColor=none;align=left;verticalAlign=middle;spacingTop=-1;spacingLeft=3;spacingRight=3;rotatable=0;labelPosition=right;points=[];portConstraint=eastwest;strokeColor=inherit;" parent="3gHYaD6FzkBsOfii6fHW-1" vertex="1">
          <mxGeometry y="110" width="160" height="8" as="geometry" />
        </mxCell>
        <mxCell id="3gHYaD6FzkBsOfii6fHW-4" value="+ getId(): int&lt;div&gt;+ getRoomName(): String&lt;/div&gt;&lt;div&gt;+ getRoomType(): String&lt;/div&gt;&lt;div&gt;+ getPrice(): double&lt;/div&gt;&lt;div&gt;+ getImageName(): String&lt;/div&gt;" style="text;strokeColor=none;fillColor=none;align=left;verticalAlign=top;spacingLeft=4;spacingRight=4;overflow=hidden;rotatable=0;points=[[0,0.5],[1,0.5]];portConstraint=eastwest;whiteSpace=wrap;html=1;" parent="3gHYaD6FzkBsOfii6fHW-1" vertex="1">
          <mxGeometry y="118" width="160" height="92" as="geometry" />
        </mxCell>
        <mxCell id="3gHYaD6FzkBsOfii6fHW-5" value="Service" style="swimlane;fontStyle=1;align=center;verticalAlign=top;childLayout=stackLayout;horizontal=1;startSize=26;horizontalStack=0;resizeParent=1;resizeParentMax=0;resizeLast=0;collapsible=1;marginBottom=0;whiteSpace=wrap;html=1;" parent="1" vertex="1">
          <mxGeometry x="400" y="240" width="160" height="240" as="geometry">
            <mxRectangle x="141" y="200" width="70" height="30" as="alternateBounds" />
          </mxGeometry>
        </mxCell>
        <mxCell id="3gHYaD6FzkBsOfii6fHW-6" value="- id: int&lt;div&gt;- name: String&lt;/div&gt;&lt;div&gt;- category: String&lt;/div&gt;&lt;div&gt;- price: double&lt;/div&gt;&lt;div&gt;- description: String&lt;/div&gt;&lt;div&gt;- imageName: String&lt;/div&gt;" style="text;strokeColor=none;fillColor=none;align=left;verticalAlign=top;spacingLeft=4;spacingRight=4;overflow=hidden;rotatable=0;points=[[0,0.5],[1,0.5]];portConstraint=eastwest;whiteSpace=wrap;html=1;" parent="3gHYaD6FzkBsOfii6fHW-5" vertex="1">
          <mxGeometry y="26" width="160" height="104" as="geometry" />
        </mxCell>
        <mxCell id="3gHYaD6FzkBsOfii6fHW-7" value="" style="line;strokeWidth=1;fillColor=none;align=left;verticalAlign=middle;spacingTop=-1;spacingLeft=3;spacingRight=3;rotatable=0;labelPosition=right;points=[];portConstraint=eastwest;strokeColor=inherit;" parent="3gHYaD6FzkBsOfii6fHW-5" vertex="1">
          <mxGeometry y="130" width="160" height="8" as="geometry" />
        </mxCell>
        <mxCell id="3gHYaD6FzkBsOfii6fHW-8" value="+ getId(): int&lt;div&gt;+ getName(): String&lt;/div&gt;&lt;div&gt;+ getCategory(): String&lt;/div&gt;&lt;div&gt;+ getPrice(): double&lt;/div&gt;&lt;div&gt;+ getDescription(): String&lt;/div&gt;&lt;div&gt;+ getImageName(): String&lt;/div&gt;" style="text;strokeColor=none;fillColor=none;align=left;verticalAlign=top;spacingLeft=4;spacingRight=4;overflow=hidden;rotatable=0;points=[[0,0.5],[1,0.5]];portConstraint=eastwest;whiteSpace=wrap;html=1;" parent="3gHYaD6FzkBsOfii6fHW-5" vertex="1">
          <mxGeometry y="138" width="160" height="102" as="geometry" />
        </mxCell>
        <mxCell id="3gHYaD6FzkBsOfii6fHW-9" value="Order" style="swimlane;fontStyle=1;align=center;verticalAlign=top;childLayout=stackLayout;horizontal=1;startSize=26;horizontalStack=0;resizeParent=1;resizeParentMax=0;resizeLast=0;collapsible=1;marginBottom=0;whiteSpace=wrap;html=1;" parent="1" vertex="1">
          <mxGeometry x="640" y="240" width="160" height="180" as="geometry">
            <mxRectangle x="141" y="200" width="70" height="30" as="alternateBounds" />
          </mxGeometry>
        </mxCell>
        <mxCell id="3gHYaD6FzkBsOfii6fHW-10" value="- orderId: int&lt;div&gt;- orderDate: String&lt;/div&gt;&lt;div&gt;- totalAmount: double&lt;/div&gt;&lt;div&gt;- orderDetails: String&lt;/div&gt;" style="text;strokeColor=none;fillColor=none;align=left;verticalAlign=top;spacingLeft=4;spacingRight=4;overflow=hidden;rotatable=0;points=[[0,0.5],[1,0.5]];portConstraint=eastwest;whiteSpace=wrap;html=1;" parent="3gHYaD6FzkBsOfii6fHW-9" vertex="1">
          <mxGeometry y="26" width="160" height="74" as="geometry" />
        </mxCell>
        <mxCell id="3gHYaD6FzkBsOfii6fHW-11" value="" style="line;strokeWidth=1;fillColor=none;align=left;verticalAlign=middle;spacingTop=-1;spacingLeft=3;spacingRight=3;rotatable=0;labelPosition=right;points=[];portConstraint=eastwest;strokeColor=inherit;" parent="3gHYaD6FzkBsOfii6fHW-9" vertex="1">
          <mxGeometry y="100" width="160" height="8" as="geometry" />
        </mxCell>
        <mxCell id="3gHYaD6FzkBsOfii6fHW-12" value="+ getorderId(): int&lt;div&gt;+ getOrderDate(): String&lt;/div&gt;&lt;div&gt;+ getTotalAmount(): double&lt;/div&gt;&lt;div&gt;+ getOrderDetails(): String&lt;/div&gt;" style="text;strokeColor=none;fillColor=none;align=left;verticalAlign=top;spacingLeft=4;spacingRight=4;overflow=hidden;rotatable=0;points=[[0,0.5],[1,0.5]];portConstraint=eastwest;whiteSpace=wrap;html=1;" parent="3gHYaD6FzkBsOfii6fHW-9" vertex="1">
          <mxGeometry y="108" width="160" height="72" as="geometry" />
        </mxCell>
        <mxCell id="3gHYaD6FzkBsOfii6fHW-14" value="CartItem" style="swimlane;fontStyle=1;align=center;verticalAlign=top;childLayout=stackLayout;horizontal=1;startSize=26;horizontalStack=0;resizeParent=1;resizeParentMax=0;resizeLast=0;collapsible=1;marginBottom=0;whiteSpace=wrap;html=1;" parent="1" vertex="1">
          <mxGeometry x="880" y="240" width="190" height="160" as="geometry">
            <mxRectangle x="141" y="200" width="70" height="30" as="alternateBounds" />
          </mxGeometry>
        </mxCell>
        <mxCell id="3gHYaD6FzkBsOfii6fHW-15" value="- cartId: int&lt;div&gt;- room: Room&lt;/div&gt;&lt;div&gt;- quantity: int&lt;/div&gt;" style="text;strokeColor=none;fillColor=none;align=left;verticalAlign=top;spacingLeft=4;spacingRight=4;overflow=hidden;rotatable=0;points=[[0,0.5],[1,0.5]];portConstraint=eastwest;whiteSpace=wrap;html=1;" parent="3gHYaD6FzkBsOfii6fHW-14" vertex="1">
          <mxGeometry y="26" width="190" height="54" as="geometry" />
        </mxCell>
        <mxCell id="3gHYaD6FzkBsOfii6fHW-16" value="" style="line;strokeWidth=1;fillColor=none;align=left;verticalAlign=middle;spacingTop=-1;spacingLeft=3;spacingRight=3;rotatable=0;labelPosition=right;points=[];portConstraint=eastwest;strokeColor=inherit;" parent="3gHYaD6FzkBsOfii6fHW-14" vertex="1">
          <mxGeometry y="80" width="190" height="8" as="geometry" />
        </mxCell>
        <mxCell id="3gHYaD6FzkBsOfii6fHW-17" value="+ getCartId(): int&lt;div&gt;+ getRoom(): Room&lt;/div&gt;&lt;div&gt;+ getQuantity(): int&lt;/div&gt;&lt;div&gt;+ setQuantity(quantity: int): void&lt;/div&gt;" style="text;strokeColor=none;fillColor=none;align=left;verticalAlign=top;spacingLeft=4;spacingRight=4;overflow=hidden;rotatable=0;points=[[0,0.5],[1,0.5]];portConstraint=eastwest;whiteSpace=wrap;html=1;" parent="3gHYaD6FzkBsOfii6fHW-14" vertex="1">
          <mxGeometry y="88" width="190" height="72" as="geometry" />
        </mxCell>
        <mxCell id="3gHYaD6FzkBsOfii6fHW-18" value="ServiceBooking" style="swimlane;fontStyle=1;align=center;verticalAlign=top;childLayout=stackLayout;horizontal=1;startSize=26;horizontalStack=0;resizeParent=1;resizeParentMax=0;resizeLast=0;collapsible=1;marginBottom=0;whiteSpace=wrap;html=1;" parent="1" vertex="1">
          <mxGeometry x="1160" y="240" width="190" height="150" as="geometry">
            <mxRectangle x="141" y="200" width="70" height="30" as="alternateBounds" />
          </mxGeometry>
        </mxCell>
        <mxCell id="3gHYaD6FzkBsOfii6fHW-19" value="- bookingId: int&lt;div&gt;- bookingDateTime: String&lt;/div&gt;&lt;div&gt;- serviceName: String&lt;/div&gt;" style="text;strokeColor=none;fillColor=none;align=left;verticalAlign=top;spacingLeft=4;spacingRight=4;overflow=hidden;rotatable=0;points=[[0,0.5],[1,0.5]];portConstraint=eastwest;whiteSpace=wrap;html=1;" parent="3gHYaD6FzkBsOfii6fHW-18" vertex="1">
          <mxGeometry y="26" width="190" height="54" as="geometry" />
        </mxCell>
        <mxCell id="3gHYaD6FzkBsOfii6fHW-20" value="" style="line;strokeWidth=1;fillColor=none;align=left;verticalAlign=middle;spacingTop=-1;spacingLeft=3;spacingRight=3;rotatable=0;labelPosition=right;points=[];portConstraint=eastwest;strokeColor=inherit;" parent="3gHYaD6FzkBsOfii6fHW-18" vertex="1">
          <mxGeometry y="80" width="190" height="8" as="geometry" />
        </mxCell>
        <mxCell id="3gHYaD6FzkBsOfii6fHW-21" value="+ getBookingtId(): int&lt;div&gt;+ getBookingDateTime(): String&lt;/div&gt;&lt;div&gt;+ getServiceName(): String&lt;/div&gt;" style="text;strokeColor=none;fillColor=none;align=left;verticalAlign=top;spacingLeft=4;spacingRight=4;overflow=hidden;rotatable=0;points=[[0,0.5],[1,0.5]];portConstraint=eastwest;whiteSpace=wrap;html=1;" parent="3gHYaD6FzkBsOfii6fHW-18" vertex="1">
          <mxGeometry y="88" width="190" height="62" as="geometry" />
        </mxCell>
        <mxCell id="3gHYaD6FzkBsOfii6fHW-22" value="DatabaseHelper" style="swimlane;fontStyle=1;align=center;verticalAlign=top;childLayout=stackLayout;horizontal=1;startSize=26;horizontalStack=0;resizeParent=1;resizeParentMax=0;resizeLast=0;collapsible=1;marginBottom=0;whiteSpace=wrap;html=1;" parent="1" vertex="1">
          <mxGeometry x="1440" y="240" width="300" height="390" as="geometry" />
        </mxCell>
        <mxCell id="3gHYaD6FzkBsOfii6fHW-23" value="+ DB_NAME: String&lt;div&gt;+ DB_VERSION: String&lt;/div&gt;" style="text;strokeColor=none;fillColor=none;align=left;verticalAlign=top;spacingLeft=4;spacingRight=4;overflow=hidden;rotatable=0;points=[[0,0.5],[1,0.5]];portConstraint=eastwest;whiteSpace=wrap;html=1;" parent="3gHYaD6FzkBsOfii6fHW-22" vertex="1">
          <mxGeometry y="26" width="300" height="44" as="geometry" />
        </mxCell>
        <mxCell id="3gHYaD6FzkBsOfii6fHW-24" value="" style="line;strokeWidth=1;fillColor=none;align=left;verticalAlign=middle;spacingTop=-1;spacingLeft=3;spacingRight=3;rotatable=0;labelPosition=right;points=[];portConstraint=eastwest;strokeColor=inherit;" parent="3gHYaD6FzkBsOfii6fHW-22" vertex="1">
          <mxGeometry y="70" width="300" height="8" as="geometry" />
        </mxCell>
        <mxCell id="3gHYaD6FzkBsOfii6fHW-25" value="+ onCreate(): void&lt;div&gt;+ onUpgrade(): void&lt;/div&gt;&lt;div&gt;+ insertUser(): Boolean&lt;/div&gt;&lt;div&gt;+ checkUser(): Boolean&lt;/div&gt;&lt;div&gt;+ checkEmailPassword(): Boolean&lt;/div&gt;&lt;div&gt;+ getAllRooms(): ArrayList&amp;lt;Room&amp;gt;&lt;/div&gt;&lt;div&gt;+ getAllRoomTypes(): ArrayList&amp;lt;Room&amp;gt;&lt;/div&gt;&lt;div&gt;+ addToCart(roomId: int): void&lt;/div&gt;&lt;div&gt;+ getCartItems(): ArrayList&amp;lt;CartItem&amp;gt;&lt;/div&gt;&lt;div&gt;+ updateQuantity(cartId: int, newQuantity: int): void&lt;/div&gt;&lt;div&gt;+ clearCart(): void&lt;/div&gt;&lt;div&gt;+ placeOrder(): Boolean&lt;/div&gt;&lt;div&gt;+ getOrderHistory(): ArrayList&amp;lt;Order&amp;gt;&lt;/div&gt;&lt;div&gt;+ getAllServices(): ArrayList&amp;lt;Service&amp;gt;&lt;/div&gt;&lt;div&gt;+ addServiceBooking(): Boolean&lt;/div&gt;&lt;div&gt;+ getUserDetails(): String Array&lt;/div&gt;&lt;div&gt;+ getUpcomingRoomBooking(): Order&lt;/div&gt;&lt;div&gt;+ getUpcomingServiceReservation(): ServiceBooking&lt;/div&gt;&lt;div&gt;+ addRoomType(): void&lt;/div&gt;&lt;div&gt;+ addRoom(): void&lt;/div&gt;&lt;div&gt;+ addService(): void&lt;/div&gt;" style="text;strokeColor=none;fillColor=none;align=left;verticalAlign=top;spacingLeft=4;spacingRight=4;overflow=hidden;rotatable=0;points=[[0,0.5],[1,0.5]];portConstraint=eastwest;whiteSpace=wrap;html=1;" parent="3gHYaD6FzkBsOfii6fHW-22" vertex="1">
          <mxGeometry y="78" width="300" height="312" as="geometry" />
        </mxCell>
        <mxCell id="3gHYaD6FzkBsOfii6fHW-26" value="RoomsFragment" style="html=1;whiteSpace=wrap;" parent="1" vertex="1">
          <mxGeometry x="1800" y="240" width="110" height="50" as="geometry" />
        </mxCell>
        <mxCell id="3gHYaD6FzkBsOfii6fHW-27" value="ServicesFragment" style="html=1;whiteSpace=wrap;" parent="1" vertex="1">
          <mxGeometry x="1800" y="310" width="110" height="50" as="geometry" />
        </mxCell>
        <mxCell id="3gHYaD6FzkBsOfii6fHW-28" value="CartFragment" style="html=1;whiteSpace=wrap;" parent="1" vertex="1">
          <mxGeometry x="1800" y="380" width="110" height="50" as="geometry" />
        </mxCell>
        <mxCell id="3gHYaD6FzkBsOfii6fHW-29" value="LoginFragment" style="html=1;whiteSpace=wrap;" parent="1" vertex="1">
          <mxGeometry x="1800" y="450" width="110" height="50" as="geometry" />
        </mxCell>
        <mxCell id="3gHYaD6FzkBsOfii6fHW-30" value="ProfileFragment" style="html=1;whiteSpace=wrap;" parent="1" vertex="1">
          <mxGeometry x="1800" y="525" width="110" height="50" as="geometry" />
        </mxCell>
        <mxCell id="3gHYaD6FzkBsOfii6fHW-33" value="RoomAdapter" style="html=1;whiteSpace=wrap;" parent="1" vertex="1">
          <mxGeometry x="1960" y="240" width="110" height="50" as="geometry" />
        </mxCell>
        <mxCell id="3gHYaD6FzkBsOfii6fHW-34" value="ServicesAdapter" style="html=1;whiteSpace=wrap;" parent="1" vertex="1">
          <mxGeometry x="1960" y="320" width="110" height="50" as="geometry" />
        </mxCell>
        <mxCell id="3gHYaD6FzkBsOfii6fHW-35" value="CartAdapter" style="html=1;whiteSpace=wrap;" parent="1" vertex="1">
          <mxGeometry x="1960" y="400" width="110" height="50" as="geometry" />
        </mxCell>
      </root>
    </mxGraphModel>
  </diagram>
</mxfile>
